<?xml version="1.0" encoding="utf8" standalone="no"?>
<svg viewBox="0 0 744.09447 1052.362179" xmlns="http://www.w3.org/2000/svg">
<g transform="matrix(3.85666,0,0,3.85666,-184.47941,-2138.9288)">
<path d="m63.3151,613.65326h161.65425a3.82816,3.82816 0 0,1 3.82816,3.82815v96.98337a3.82816,3.82816 0 0,1 -3.82816,3.82816h-161.65425a3.82816,3.82816 0 0,1 -3.82816-3.82816v-96.98337a3.82816,3.82816 0 0,1 3.82816-3.82815" fill="#fff" stroke="#999" stroke-linecap="round" stroke-width="6.719"/>
<g fill="#ccc" stroke="#ccc" transform="matrix(1,0,0,-1,.2504,1316.3517)">
<path d="m61.65296,600.34682 64.97105,58.73774" fill="#ccc" fill-rule="evenodd" stroke="#ccc" stroke-linecap="round" stroke-width="3"/>
<path d="m160.44293,660.51798 64.25433-58.02103" fill="#ccc" fill-rule="evenodd" stroke="#ccc" stroke-linecap="round" stroke-width="3"/>
</g>
<g transform="translate(-.46631,-4)">
<path d="m65.95322,621.13141 77.87183,47.27038" fill="#ccc" fill-rule="evenodd" stroke="#999" stroke-linecap="round" stroke-width="8"/>
<path d="m145.39202,668.40179 77.87182-47.27038" fill="#ccc" fill-rule="evenodd" stroke="#999" stroke-linecap="round" stroke-width="8"/>
</g>
</g>
</svg>
